<?xml version="1.0"?>

<svg xmlns="http://www.w3.org/2000/svg" xmlns:xlink="http://www.w3.org/1999/xlink" version="1.1" viewBox="0 0 1749 1749">
<g transform="scale(3.416015625)">
<path fill="#000000" d="M421.6-0.8H90.4c-15.6,0-28.2,12.7-28.2,28.2v314.1v17c0,23.1,0,62.6,0,73.5v15.3v32.7v4.5c0,15.6,12.7,28.2,28.2,28.2h331.1c15.6,0,28.2-12.7,28.2-28.2v-4.5v-32.7V432c0-11.4,0-52.4,0-73.5v-12.8V27.4C449.8,11.9,437.1-0.8,421.6-0.8z M435.2,358.6c0,7.5-6.1,13.7-13.7,13.7h-114l-44.2,39.8l-44.2-39.8H90.4c-7.5,0-13.7-6.1-13.7-13.7V27.4c0-7.5,6.1-13.7,13.7-13.7h331.1c7.5,0,13.7,6.1,13.7,13.7V358.6z"/>
</g>
<g transform="translate(291,79)">
<defs/>
<rect x="0" y="0" width="1166" height="1166" fill="#ffffff" fill-opacity="0.99212598425197"/>
<rect x="46" y="46" width="29" height="29" fill="#000000"/>
<rect x="75" y="46" width="29" height="29" fill="#000000"/>
<rect x="104" y="46" width="29" height="29" fill="#000000"/>
<rect x="133" y="46" width="29" height="29" fill="#000000"/>
<rect x="162" y="46" width="29" height="29" fill="#000000"/>
<rect x="191" y="46" width="29" height="29" fill="#000000"/>
<rect x="220" y="46" width="29" height="29" fill="#000000"/>
<rect x="336" y="46" width="29" height="29" fill="#000000"/>
<rect x="452" y="46" width="29" height="29" fill="#000000"/>
<rect x="481" y="46" width="29" height="29" fill="#000000"/>
<rect x="626" y="46" width="29" height="29" fill="#000000"/>
<rect x="684" y="46" width="29" height="29" fill="#000000"/>
<rect x="742" y="46" width="29" height="29" fill="#000000"/>
<rect x="771" y="46" width="29" height="29" fill="#000000"/>
<rect x="829" y="46" width="29" height="29" fill="#000000"/>
<rect x="916" y="46" width="29" height="29" fill="#000000"/>
<rect x="945" y="46" width="29" height="29" fill="#000000"/>
<rect x="974" y="46" width="29" height="29" fill="#000000"/>
<rect x="1003" y="46" width="29" height="29" fill="#000000"/>
<rect x="1032" y="46" width="29" height="29" fill="#000000"/>
<rect x="1061" y="46" width="29" height="29" fill="#000000"/>
<rect x="1090" y="46" width="29" height="29" fill="#000000"/>
<rect x="46" y="75" width="29" height="29" fill="#000000"/>
<rect x="220" y="75" width="29" height="29" fill="#000000"/>
<rect x="278" y="75" width="29" height="29" fill="#000000"/>
<rect x="307" y="75" width="29" height="29" fill="#000000"/>
<rect x="568" y="75" width="29" height="29" fill="#000000"/>
<rect x="684" y="75" width="29" height="29" fill="#000000"/>
<rect x="742" y="75" width="29" height="29" fill="#000000"/>
<rect x="771" y="75" width="29" height="29" fill="#000000"/>
<rect x="800" y="75" width="29" height="29" fill="#000000"/>
<rect x="916" y="75" width="29" height="29" fill="#000000"/>
<rect x="1090" y="75" width="29" height="29" fill="#000000"/>
<rect x="46" y="104" width="29" height="29" fill="#000000"/>
<rect x="104" y="104" width="29" height="29" fill="#000000"/>
<rect x="133" y="104" width="29" height="29" fill="#000000"/>
<rect x="162" y="104" width="29" height="29" fill="#000000"/>
<rect x="220" y="104" width="29" height="29" fill="#000000"/>
<rect x="278" y="104" width="29" height="29" fill="#000000"/>
<rect x="307" y="104" width="29" height="29" fill="#000000"/>
<rect x="394" y="104" width="29" height="29" fill="#000000"/>
<rect x="423" y="104" width="29" height="29" fill="#000000"/>
<rect x="452" y="104" width="29" height="29" fill="#000000"/>
<rect x="510" y="104" width="29" height="29" fill="#000000"/>
<rect x="568" y="104" width="29" height="29" fill="#000000"/>
<rect x="655" y="104" width="29" height="29" fill="#000000"/>
<rect x="771" y="104" width="29" height="29" fill="#000000"/>
<rect x="800" y="104" width="29" height="29" fill="#000000"/>
<rect x="916" y="104" width="29" height="29" fill="#000000"/>
<rect x="974" y="104" width="29" height="29" fill="#000000"/>
<rect x="1003" y="104" width="29" height="29" fill="#000000"/>
<rect x="1032" y="104" width="29" height="29" fill="#000000"/>
<rect x="1090" y="104" width="29" height="29" fill="#000000"/>
<rect x="46" y="133" width="29" height="29" fill="#000000"/>
<rect x="104" y="133" width="29" height="29" fill="#000000"/>
<rect x="133" y="133" width="29" height="29" fill="#000000"/>
<rect x="162" y="133" width="29" height="29" fill="#000000"/>
<rect x="220" y="133" width="29" height="29" fill="#000000"/>
<rect x="278" y="133" width="29" height="29" fill="#000000"/>
<rect x="307" y="133" width="29" height="29" fill="#000000"/>
<rect x="365" y="133" width="29" height="29" fill="#000000"/>
<rect x="510" y="133" width="29" height="29" fill="#000000"/>
<rect x="539" y="133" width="29" height="29" fill="#000000"/>
<rect x="568" y="133" width="29" height="29" fill="#000000"/>
<rect x="597" y="133" width="29" height="29" fill="#000000"/>
<rect x="626" y="133" width="29" height="29" fill="#000000"/>
<rect x="684" y="133" width="29" height="29" fill="#000000"/>
<rect x="713" y="133" width="29" height="29" fill="#000000"/>
<rect x="742" y="133" width="29" height="29" fill="#000000"/>
<rect x="800" y="133" width="29" height="29" fill="#000000"/>
<rect x="916" y="133" width="29" height="29" fill="#000000"/>
<rect x="974" y="133" width="29" height="29" fill="#000000"/>
<rect x="1003" y="133" width="29" height="29" fill="#000000"/>
<rect x="1032" y="133" width="29" height="29" fill="#000000"/>
<rect x="1090" y="133" width="29" height="29" fill="#000000"/>
<rect x="46" y="162" width="29" height="29" fill="#000000"/>
<rect x="104" y="162" width="29" height="29" fill="#000000"/>
<rect x="133" y="162" width="29" height="29" fill="#000000"/>
<rect x="162" y="162" width="29" height="29" fill="#000000"/>
<rect x="220" y="162" width="29" height="29" fill="#000000"/>
<rect x="278" y="162" width="29" height="29" fill="#000000"/>
<rect x="336" y="162" width="29" height="29" fill="#000000"/>
<rect x="365" y="162" width="29" height="29" fill="#000000"/>
<rect x="452" y="162" width="29" height="29" fill="#000000"/>
<rect x="568" y="162" width="29" height="29" fill="#000000"/>
<rect x="597" y="162" width="29" height="29" fill="#000000"/>
<rect x="626" y="162" width="29" height="29" fill="#000000"/>
<rect x="742" y="162" width="29" height="29" fill="#000000"/>
<rect x="771" y="162" width="29" height="29" fill="#000000"/>
<rect x="858" y="162" width="29" height="29" fill="#000000"/>
<rect x="916" y="162" width="29" height="29" fill="#000000"/>
<rect x="974" y="162" width="29" height="29" fill="#000000"/>
<rect x="1003" y="162" width="29" height="29" fill="#000000"/>
<rect x="1032" y="162" width="29" height="29" fill="#000000"/>
<rect x="1090" y="162" width="29" height="29" fill="#000000"/>
<rect x="46" y="191" width="29" height="29" fill="#000000"/>
<rect x="220" y="191" width="29" height="29" fill="#000000"/>
<rect x="278" y="191" width="29" height="29" fill="#000000"/>
<rect x="336" y="191" width="29" height="29" fill="#000000"/>
<rect x="394" y="191" width="29" height="29" fill="#000000"/>
<rect x="423" y="191" width="29" height="29" fill="#000000"/>
<rect x="481" y="191" width="29" height="29" fill="#000000"/>
<rect x="597" y="191" width="29" height="29" fill="#000000"/>
<rect x="626" y="191" width="29" height="29" fill="#000000"/>
<rect x="742" y="191" width="29" height="29" fill="#000000"/>
<rect x="829" y="191" width="29" height="29" fill="#000000"/>
<rect x="858" y="191" width="29" height="29" fill="#000000"/>
<rect x="916" y="191" width="29" height="29" fill="#000000"/>
<rect x="1090" y="191" width="29" height="29" fill="#000000"/>
<rect x="46" y="220" width="29" height="29" fill="#000000"/>
<rect x="75" y="220" width="29" height="29" fill="#000000"/>
<rect x="104" y="220" width="29" height="29" fill="#000000"/>
<rect x="133" y="220" width="29" height="29" fill="#000000"/>
<rect x="162" y="220" width="29" height="29" fill="#000000"/>
<rect x="191" y="220" width="29" height="29" fill="#000000"/>
<rect x="220" y="220" width="29" height="29" fill="#000000"/>
<rect x="278" y="220" width="29" height="29" fill="#000000"/>
<rect x="336" y="220" width="29" height="29" fill="#000000"/>
<rect x="394" y="220" width="29" height="29" fill="#000000"/>
<rect x="452" y="220" width="29" height="29" fill="#000000"/>
<rect x="510" y="220" width="29" height="29" fill="#000000"/>
<rect x="568" y="220" width="29" height="29" fill="#000000"/>
<rect x="626" y="220" width="29" height="29" fill="#000000"/>
<rect x="684" y="220" width="29" height="29" fill="#000000"/>
<rect x="742" y="220" width="29" height="29" fill="#000000"/>
<rect x="800" y="220" width="29" height="29" fill="#000000"/>
<rect x="858" y="220" width="29" height="29" fill="#000000"/>
<rect x="916" y="220" width="29" height="29" fill="#000000"/>
<rect x="945" y="220" width="29" height="29" fill="#000000"/>
<rect x="974" y="220" width="29" height="29" fill="#000000"/>
<rect x="1003" y="220" width="29" height="29" fill="#000000"/>
<rect x="1032" y="220" width="29" height="29" fill="#000000"/>
<rect x="1061" y="220" width="29" height="29" fill="#000000"/>
<rect x="1090" y="220" width="29" height="29" fill="#000000"/>
<rect x="307" y="249" width="29" height="29" fill="#000000"/>
<rect x="365" y="249" width="29" height="29" fill="#000000"/>
<rect x="394" y="249" width="29" height="29" fill="#000000"/>
<rect x="423" y="249" width="29" height="29" fill="#000000"/>
<rect x="452" y="249" width="29" height="29" fill="#000000"/>
<rect x="481" y="249" width="29" height="29" fill="#000000"/>
<rect x="510" y="249" width="29" height="29" fill="#000000"/>
<rect x="539" y="249" width="29" height="29" fill="#000000"/>
<rect x="626" y="249" width="29" height="29" fill="#000000"/>
<rect x="655" y="249" width="29" height="29" fill="#000000"/>
<rect x="742" y="249" width="29" height="29" fill="#000000"/>
<rect x="800" y="249" width="29" height="29" fill="#000000"/>
<rect x="829" y="249" width="29" height="29" fill="#000000"/>
<rect x="104" y="278" width="29" height="29" fill="#000000"/>
<rect x="191" y="278" width="29" height="29" fill="#000000"/>
<rect x="220" y="278" width="29" height="29" fill="#000000"/>
<rect x="249" y="278" width="29" height="29" fill="#000000"/>
<rect x="278" y="278" width="29" height="29" fill="#000000"/>
<rect x="336" y="278" width="29" height="29" fill="#000000"/>
<rect x="365" y="278" width="29" height="29" fill="#000000"/>
<rect x="394" y="278" width="29" height="29" fill="#000000"/>
<rect x="423" y="278" width="29" height="29" fill="#000000"/>
<rect x="481" y="278" width="29" height="29" fill="#000000"/>
<rect x="510" y="278" width="29" height="29" fill="#000000"/>
<rect x="539" y="278" width="29" height="29" fill="#000000"/>
<rect x="568" y="278" width="29" height="29" fill="#000000"/>
<rect x="655" y="278" width="29" height="29" fill="#000000"/>
<rect x="684" y="278" width="29" height="29" fill="#000000"/>
<rect x="713" y="278" width="29" height="29" fill="#000000"/>
<rect x="771" y="278" width="29" height="29" fill="#000000"/>
<rect x="800" y="278" width="29" height="29" fill="#000000"/>
<rect x="829" y="278" width="29" height="29" fill="#000000"/>
<rect x="858" y="278" width="29" height="29" fill="#000000"/>
<rect x="887" y="278" width="29" height="29" fill="#000000"/>
<rect x="945" y="278" width="29" height="29" fill="#000000"/>
<rect x="974" y="278" width="29" height="29" fill="#000000"/>
<rect x="1003" y="278" width="29" height="29" fill="#000000"/>
<rect x="1032" y="278" width="29" height="29" fill="#000000"/>
<rect x="1061" y="278" width="29" height="29" fill="#000000"/>
<rect x="46" y="307" width="29" height="29" fill="#000000"/>
<rect x="75" y="307" width="29" height="29" fill="#000000"/>
<rect x="104" y="307" width="29" height="29" fill="#000000"/>
<rect x="133" y="307" width="29" height="29" fill="#000000"/>
<rect x="191" y="307" width="29" height="29" fill="#000000"/>
<rect x="278" y="307" width="29" height="29" fill="#000000"/>
<rect x="336" y="307" width="29" height="29" fill="#000000"/>
<rect x="481" y="307" width="29" height="29" fill="#000000"/>
<rect x="510" y="307" width="29" height="29" fill="#000000"/>
<rect x="568" y="307" width="29" height="29" fill="#000000"/>
<rect x="597" y="307" width="29" height="29" fill="#000000"/>
<rect x="626" y="307" width="29" height="29" fill="#000000"/>
<rect x="655" y="307" width="29" height="29" fill="#000000"/>
<rect x="684" y="307" width="29" height="29" fill="#000000"/>
<rect x="713" y="307" width="29" height="29" fill="#000000"/>
<rect x="800" y="307" width="29" height="29" fill="#000000"/>
<rect x="858" y="307" width="29" height="29" fill="#000000"/>
<rect x="46" y="336" width="29" height="29" fill="#000000"/>
<rect x="133" y="336" width="29" height="29" fill="#000000"/>
<rect x="162" y="336" width="29" height="29" fill="#000000"/>
<rect x="220" y="336" width="29" height="29" fill="#000000"/>
<rect x="278" y="336" width="29" height="29" fill="#000000"/>
<rect x="336" y="336" width="29" height="29" fill="#000000"/>
<rect x="365" y="336" width="29" height="29" fill="#000000"/>
<rect x="423" y="336" width="29" height="29" fill="#000000"/>
<rect x="452" y="336" width="29" height="29" fill="#000000"/>
<rect x="481" y="336" width="29" height="29" fill="#000000"/>
<rect x="539" y="336" width="29" height="29" fill="#000000"/>
<rect x="568" y="336" width="29" height="29" fill="#000000"/>
<rect x="626" y="336" width="29" height="29" fill="#000000"/>
<rect x="713" y="336" width="29" height="29" fill="#000000"/>
<rect x="800" y="336" width="29" height="29" fill="#000000"/>
<rect x="858" y="336" width="29" height="29" fill="#000000"/>
<rect x="916" y="336" width="29" height="29" fill="#000000"/>
<rect x="1003" y="336" width="29" height="29" fill="#000000"/>
<rect x="1090" y="336" width="29" height="29" fill="#000000"/>
<rect x="104" y="365" width="29" height="29" fill="#000000"/>
<rect x="365" y="365" width="29" height="29" fill="#000000"/>
<rect x="452" y="365" width="29" height="29" fill="#000000"/>
<rect x="481" y="365" width="29" height="29" fill="#000000"/>
<rect x="510" y="365" width="29" height="29" fill="#000000"/>
<rect x="539" y="365" width="29" height="29" fill="#000000"/>
<rect x="568" y="365" width="29" height="29" fill="#000000"/>
<rect x="684" y="365" width="29" height="29" fill="#000000"/>
<rect x="713" y="365" width="29" height="29" fill="#000000"/>
<rect x="771" y="365" width="29" height="29" fill="#000000"/>
<rect x="829" y="365" width="29" height="29" fill="#000000"/>
<rect x="858" y="365" width="29" height="29" fill="#000000"/>
<rect x="887" y="365" width="29" height="29" fill="#000000"/>
<rect x="916" y="365" width="29" height="29" fill="#000000"/>
<rect x="945" y="365" width="29" height="29" fill="#000000"/>
<rect x="1003" y="365" width="29" height="29" fill="#000000"/>
<rect x="1032" y="365" width="29" height="29" fill="#000000"/>
<rect x="1061" y="365" width="29" height="29" fill="#000000"/>
<rect x="1090" y="365" width="29" height="29" fill="#000000"/>
<rect x="46" y="394" width="29" height="29" fill="#000000"/>
<rect x="104" y="394" width="29" height="29" fill="#000000"/>
<rect x="133" y="394" width="29" height="29" fill="#000000"/>
<rect x="162" y="394" width="29" height="29" fill="#000000"/>
<rect x="220" y="394" width="29" height="29" fill="#000000"/>
<rect x="307" y="394" width="29" height="29" fill="#000000"/>
<rect x="336" y="394" width="29" height="29" fill="#000000"/>
<rect x="394" y="394" width="29" height="29" fill="#000000"/>
<rect x="452" y="394" width="29" height="29" fill="#000000"/>
<rect x="655" y="394" width="29" height="29" fill="#000000"/>
<rect x="742" y="394" width="29" height="29" fill="#000000"/>
<rect x="858" y="394" width="29" height="29" fill="#000000"/>
<rect x="916" y="394" width="29" height="29" fill="#000000"/>
<rect x="945" y="394" width="29" height="29" fill="#000000"/>
<rect x="1003" y="394" width="29" height="29" fill="#000000"/>
<rect x="1090" y="394" width="29" height="29" fill="#000000"/>
<rect x="75" y="423" width="29" height="29" fill="#000000"/>
<rect x="104" y="423" width="29" height="29" fill="#000000"/>
<rect x="162" y="423" width="29" height="29" fill="#000000"/>
<rect x="278" y="423" width="29" height="29" fill="#000000"/>
<rect x="307" y="423" width="29" height="29" fill="#000000"/>
<rect x="481" y="423" width="29" height="29" fill="#000000"/>
<rect x="568" y="423" width="29" height="29" fill="#000000"/>
<rect x="655" y="423" width="29" height="29" fill="#000000"/>
<rect x="684" y="423" width="29" height="29" fill="#000000"/>
<rect x="742" y="423" width="29" height="29" fill="#000000"/>
<rect x="800" y="423" width="29" height="29" fill="#000000"/>
<rect x="829" y="423" width="29" height="29" fill="#000000"/>
<rect x="858" y="423" width="29" height="29" fill="#000000"/>
<rect x="1061" y="423" width="29" height="29" fill="#000000"/>
<rect x="75" y="452" width="29" height="29" fill="#000000"/>
<rect x="191" y="452" width="29" height="29" fill="#000000"/>
<rect x="220" y="452" width="29" height="29" fill="#000000"/>
<rect x="365" y="452" width="29" height="29" fill="#000000"/>
<rect x="394" y="452" width="29" height="29" fill="#000000"/>
<rect x="481" y="452" width="29" height="29" fill="#000000"/>
<rect x="510" y="452" width="29" height="29" fill="#000000"/>
<rect x="568" y="452" width="29" height="29" fill="#000000"/>
<rect x="597" y="452" width="29" height="29" fill="#000000"/>
<rect x="626" y="452" width="29" height="29" fill="#000000"/>
<rect x="713" y="452" width="29" height="29" fill="#000000"/>
<rect x="829" y="452" width="29" height="29" fill="#000000"/>
<rect x="916" y="452" width="29" height="29" fill="#000000"/>
<rect x="1003" y="452" width="29" height="29" fill="#000000"/>
<rect x="1090" y="452" width="29" height="29" fill="#000000"/>
<rect x="75" y="481" width="29" height="29" fill="#000000"/>
<rect x="104" y="481" width="29" height="29" fill="#000000"/>
<rect x="249" y="481" width="29" height="29" fill="#000000"/>
<rect x="278" y="481" width="29" height="29" fill="#000000"/>
<rect x="307" y="481" width="29" height="29" fill="#000000"/>
<rect x="452" y="481" width="29" height="29" fill="#000000"/>
<rect x="597" y="481" width="29" height="29" fill="#000000"/>
<rect x="626" y="481" width="29" height="29" fill="#000000"/>
<rect x="684" y="481" width="29" height="29" fill="#000000"/>
<rect x="771" y="481" width="29" height="29" fill="#000000"/>
<rect x="800" y="481" width="29" height="29" fill="#000000"/>
<rect x="829" y="481" width="29" height="29" fill="#000000"/>
<rect x="858" y="481" width="29" height="29" fill="#000000"/>
<rect x="916" y="481" width="29" height="29" fill="#000000"/>
<rect x="945" y="481" width="29" height="29" fill="#000000"/>
<rect x="1003" y="481" width="29" height="29" fill="#000000"/>
<rect x="1090" y="481" width="29" height="29" fill="#000000"/>
<rect x="75" y="510" width="29" height="29" fill="#000000"/>
<rect x="104" y="510" width="29" height="29" fill="#000000"/>
<rect x="133" y="510" width="29" height="29" fill="#000000"/>
<rect x="220" y="510" width="29" height="29" fill="#000000"/>
<rect x="336" y="510" width="29" height="29" fill="#000000"/>
<rect x="394" y="510" width="29" height="29" fill="#000000"/>
<rect x="423" y="510" width="29" height="29" fill="#000000"/>
<rect x="510" y="510" width="29" height="29" fill="#000000"/>
<rect x="539" y="510" width="29" height="29" fill="#000000"/>
<rect x="626" y="510" width="29" height="29" fill="#000000"/>
<rect x="655" y="510" width="29" height="29" fill="#000000"/>
<rect x="713" y="510" width="29" height="29" fill="#000000"/>
<rect x="742" y="510" width="29" height="29" fill="#000000"/>
<rect x="800" y="510" width="29" height="29" fill="#000000"/>
<rect x="829" y="510" width="29" height="29" fill="#000000"/>
<rect x="858" y="510" width="29" height="29" fill="#000000"/>
<rect x="916" y="510" width="29" height="29" fill="#000000"/>
<rect x="974" y="510" width="29" height="29" fill="#000000"/>
<rect x="1032" y="510" width="29" height="29" fill="#000000"/>
<rect x="1090" y="510" width="29" height="29" fill="#000000"/>
<rect x="133" y="539" width="29" height="29" fill="#000000"/>
<rect x="162" y="539" width="29" height="29" fill="#000000"/>
<rect x="191" y="539" width="29" height="29" fill="#000000"/>
<rect x="278" y="539" width="29" height="29" fill="#000000"/>
<rect x="365" y="539" width="29" height="29" fill="#000000"/>
<rect x="394" y="539" width="29" height="29" fill="#000000"/>
<rect x="481" y="539" width="29" height="29" fill="#000000"/>
<rect x="510" y="539" width="29" height="29" fill="#000000"/>
<rect x="539" y="539" width="29" height="29" fill="#000000"/>
<rect x="597" y="539" width="29" height="29" fill="#000000"/>
<rect x="626" y="539" width="29" height="29" fill="#000000"/>
<rect x="684" y="539" width="29" height="29" fill="#000000"/>
<rect x="713" y="539" width="29" height="29" fill="#000000"/>
<rect x="742" y="539" width="29" height="29" fill="#000000"/>
<rect x="858" y="539" width="29" height="29" fill="#000000"/>
<rect x="887" y="539" width="29" height="29" fill="#000000"/>
<rect x="1003" y="539" width="29" height="29" fill="#000000"/>
<rect x="75" y="568" width="29" height="29" fill="#000000"/>
<rect x="162" y="568" width="29" height="29" fill="#000000"/>
<rect x="220" y="568" width="29" height="29" fill="#000000"/>
<rect x="249" y="568" width="29" height="29" fill="#000000"/>
<rect x="336" y="568" width="29" height="29" fill="#000000"/>
<rect x="365" y="568" width="29" height="29" fill="#000000"/>
<rect x="394" y="568" width="29" height="29" fill="#000000"/>
<rect x="423" y="568" width="29" height="29" fill="#000000"/>
<rect x="481" y="568" width="29" height="29" fill="#000000"/>
<rect x="568" y="568" width="29" height="29" fill="#000000"/>
<rect x="597" y="568" width="29" height="29" fill="#000000"/>
<rect x="655" y="568" width="29" height="29" fill="#000000"/>
<rect x="684" y="568" width="29" height="29" fill="#000000"/>
<rect x="742" y="568" width="29" height="29" fill="#000000"/>
<rect x="858" y="568" width="29" height="29" fill="#000000"/>
<rect x="916" y="568" width="29" height="29" fill="#000000"/>
<rect x="945" y="568" width="29" height="29" fill="#000000"/>
<rect x="1003" y="568" width="29" height="29" fill="#000000"/>
<rect x="1090" y="568" width="29" height="29" fill="#000000"/>
<rect x="75" y="597" width="29" height="29" fill="#000000"/>
<rect x="249" y="597" width="29" height="29" fill="#000000"/>
<rect x="307" y="597" width="29" height="29" fill="#000000"/>
<rect x="336" y="597" width="29" height="29" fill="#000000"/>
<rect x="394" y="597" width="29" height="29" fill="#000000"/>
<rect x="423" y="597" width="29" height="29" fill="#000000"/>
<rect x="452" y="597" width="29" height="29" fill="#000000"/>
<rect x="481" y="597" width="29" height="29" fill="#000000"/>
<rect x="539" y="597" width="29" height="29" fill="#000000"/>
<rect x="568" y="597" width="29" height="29" fill="#000000"/>
<rect x="597" y="597" width="29" height="29" fill="#000000"/>
<rect x="626" y="597" width="29" height="29" fill="#000000"/>
<rect x="713" y="597" width="29" height="29" fill="#000000"/>
<rect x="742" y="597" width="29" height="29" fill="#000000"/>
<rect x="800" y="597" width="29" height="29" fill="#000000"/>
<rect x="829" y="597" width="29" height="29" fill="#000000"/>
<rect x="858" y="597" width="29" height="29" fill="#000000"/>
<rect x="916" y="597" width="29" height="29" fill="#000000"/>
<rect x="945" y="597" width="29" height="29" fill="#000000"/>
<rect x="1032" y="597" width="29" height="29" fill="#000000"/>
<rect x="1090" y="597" width="29" height="29" fill="#000000"/>
<rect x="46" y="626" width="29" height="29" fill="#000000"/>
<rect x="75" y="626" width="29" height="29" fill="#000000"/>
<rect x="191" y="626" width="29" height="29" fill="#000000"/>
<rect x="220" y="626" width="29" height="29" fill="#000000"/>
<rect x="249" y="626" width="29" height="29" fill="#000000"/>
<rect x="336" y="626" width="29" height="29" fill="#000000"/>
<rect x="365" y="626" width="29" height="29" fill="#000000"/>
<rect x="394" y="626" width="29" height="29" fill="#000000"/>
<rect x="452" y="626" width="29" height="29" fill="#000000"/>
<rect x="510" y="626" width="29" height="29" fill="#000000"/>
<rect x="539" y="626" width="29" height="29" fill="#000000"/>
<rect x="597" y="626" width="29" height="29" fill="#000000"/>
<rect x="626" y="626" width="29" height="29" fill="#000000"/>
<rect x="655" y="626" width="29" height="29" fill="#000000"/>
<rect x="684" y="626" width="29" height="29" fill="#000000"/>
<rect x="800" y="626" width="29" height="29" fill="#000000"/>
<rect x="829" y="626" width="29" height="29" fill="#000000"/>
<rect x="887" y="626" width="29" height="29" fill="#000000"/>
<rect x="945" y="626" width="29" height="29" fill="#000000"/>
<rect x="974" y="626" width="29" height="29" fill="#000000"/>
<rect x="1003" y="626" width="29" height="29" fill="#000000"/>
<rect x="1032" y="626" width="29" height="29" fill="#000000"/>
<rect x="1061" y="626" width="29" height="29" fill="#000000"/>
<rect x="46" y="655" width="29" height="29" fill="#000000"/>
<rect x="104" y="655" width="29" height="29" fill="#000000"/>
<rect x="162" y="655" width="29" height="29" fill="#000000"/>
<rect x="307" y="655" width="29" height="29" fill="#000000"/>
<rect x="510" y="655" width="29" height="29" fill="#000000"/>
<rect x="539" y="655" width="29" height="29" fill="#000000"/>
<rect x="597" y="655" width="29" height="29" fill="#000000"/>
<rect x="626" y="655" width="29" height="29" fill="#000000"/>
<rect x="655" y="655" width="29" height="29" fill="#000000"/>
<rect x="684" y="655" width="29" height="29" fill="#000000"/>
<rect x="713" y="655" width="29" height="29" fill="#000000"/>
<rect x="771" y="655" width="29" height="29" fill="#000000"/>
<rect x="829" y="655" width="29" height="29" fill="#000000"/>
<rect x="887" y="655" width="29" height="29" fill="#000000"/>
<rect x="945" y="655" width="29" height="29" fill="#000000"/>
<rect x="1003" y="655" width="29" height="29" fill="#000000"/>
<rect x="46" y="684" width="29" height="29" fill="#000000"/>
<rect x="75" y="684" width="29" height="29" fill="#000000"/>
<rect x="133" y="684" width="29" height="29" fill="#000000"/>
<rect x="162" y="684" width="29" height="29" fill="#000000"/>
<rect x="220" y="684" width="29" height="29" fill="#000000"/>
<rect x="249" y="684" width="29" height="29" fill="#000000"/>
<rect x="278" y="684" width="29" height="29" fill="#000000"/>
<rect x="307" y="684" width="29" height="29" fill="#000000"/>
<rect x="394" y="684" width="29" height="29" fill="#000000"/>
<rect x="423" y="684" width="29" height="29" fill="#000000"/>
<rect x="452" y="684" width="29" height="29" fill="#000000"/>
<rect x="510" y="684" width="29" height="29" fill="#000000"/>
<rect x="539" y="684" width="29" height="29" fill="#000000"/>
<rect x="626" y="684" width="29" height="29" fill="#000000"/>
<rect x="655" y="684" width="29" height="29" fill="#000000"/>
<rect x="829" y="684" width="29" height="29" fill="#000000"/>
<rect x="887" y="684" width="29" height="29" fill="#000000"/>
<rect x="916" y="684" width="29" height="29" fill="#000000"/>
<rect x="1003" y="684" width="29" height="29" fill="#000000"/>
<rect x="75" y="713" width="29" height="29" fill="#000000"/>
<rect x="133" y="713" width="29" height="29" fill="#000000"/>
<rect x="162" y="713" width="29" height="29" fill="#000000"/>
<rect x="278" y="713" width="29" height="29" fill="#000000"/>
<rect x="307" y="713" width="29" height="29" fill="#000000"/>
<rect x="452" y="713" width="29" height="29" fill="#000000"/>
<rect x="481" y="713" width="29" height="29" fill="#000000"/>
<rect x="539" y="713" width="29" height="29" fill="#000000"/>
<rect x="568" y="713" width="29" height="29" fill="#000000"/>
<rect x="655" y="713" width="29" height="29" fill="#000000"/>
<rect x="713" y="713" width="29" height="29" fill="#000000"/>
<rect x="771" y="713" width="29" height="29" fill="#000000"/>
<rect x="829" y="713" width="29" height="29" fill="#000000"/>
<rect x="858" y="713" width="29" height="29" fill="#000000"/>
<rect x="916" y="713" width="29" height="29" fill="#000000"/>
<rect x="945" y="713" width="29" height="29" fill="#000000"/>
<rect x="1003" y="713" width="29" height="29" fill="#000000"/>
<rect x="1032" y="713" width="29" height="29" fill="#000000"/>
<rect x="1090" y="713" width="29" height="29" fill="#000000"/>
<rect x="46" y="742" width="29" height="29" fill="#000000"/>
<rect x="191" y="742" width="29" height="29" fill="#000000"/>
<rect x="220" y="742" width="29" height="29" fill="#000000"/>
<rect x="249" y="742" width="29" height="29" fill="#000000"/>
<rect x="278" y="742" width="29" height="29" fill="#000000"/>
<rect x="307" y="742" width="29" height="29" fill="#000000"/>
<rect x="336" y="742" width="29" height="29" fill="#000000"/>
<rect x="365" y="742" width="29" height="29" fill="#000000"/>
<rect x="394" y="742" width="29" height="29" fill="#000000"/>
<rect x="481" y="742" width="29" height="29" fill="#000000"/>
<rect x="568" y="742" width="29" height="29" fill="#000000"/>
<rect x="626" y="742" width="29" height="29" fill="#000000"/>
<rect x="742" y="742" width="29" height="29" fill="#000000"/>
<rect x="771" y="742" width="29" height="29" fill="#000000"/>
<rect x="829" y="742" width="29" height="29" fill="#000000"/>
<rect x="858" y="742" width="29" height="29" fill="#000000"/>
<rect x="945" y="742" width="29" height="29" fill="#000000"/>
<rect x="974" y="742" width="29" height="29" fill="#000000"/>
<rect x="1003" y="742" width="29" height="29" fill="#000000"/>
<rect x="1032" y="742" width="29" height="29" fill="#000000"/>
<rect x="1090" y="742" width="29" height="29" fill="#000000"/>
<rect x="162" y="771" width="29" height="29" fill="#000000"/>
<rect x="191" y="771" width="29" height="29" fill="#000000"/>
<rect x="249" y="771" width="29" height="29" fill="#000000"/>
<rect x="278" y="771" width="29" height="29" fill="#000000"/>
<rect x="365" y="771" width="29" height="29" fill="#000000"/>
<rect x="394" y="771" width="29" height="29" fill="#000000"/>
<rect x="452" y="771" width="29" height="29" fill="#000000"/>
<rect x="539" y="771" width="29" height="29" fill="#000000"/>
<rect x="684" y="771" width="29" height="29" fill="#000000"/>
<rect x="742" y="771" width="29" height="29" fill="#000000"/>
<rect x="887" y="771" width="29" height="29" fill="#000000"/>
<rect x="916" y="771" width="29" height="29" fill="#000000"/>
<rect x="1003" y="771" width="29" height="29" fill="#000000"/>
<rect x="1061" y="771" width="29" height="29" fill="#000000"/>
<rect x="46" y="800" width="29" height="29" fill="#000000"/>
<rect x="75" y="800" width="29" height="29" fill="#000000"/>
<rect x="104" y="800" width="29" height="29" fill="#000000"/>
<rect x="133" y="800" width="29" height="29" fill="#000000"/>
<rect x="162" y="800" width="29" height="29" fill="#000000"/>
<rect x="220" y="800" width="29" height="29" fill="#000000"/>
<rect x="365" y="800" width="29" height="29" fill="#000000"/>
<rect x="394" y="800" width="29" height="29" fill="#000000"/>
<rect x="452" y="800" width="29" height="29" fill="#000000"/>
<rect x="481" y="800" width="29" height="29" fill="#000000"/>
<rect x="510" y="800" width="29" height="29" fill="#000000"/>
<rect x="597" y="800" width="29" height="29" fill="#000000"/>
<rect x="626" y="800" width="29" height="29" fill="#000000"/>
<rect x="655" y="800" width="29" height="29" fill="#000000"/>
<rect x="684" y="800" width="29" height="29" fill="#000000"/>
<rect x="742" y="800" width="29" height="29" fill="#000000"/>
<rect x="800" y="800" width="29" height="29" fill="#000000"/>
<rect x="829" y="800" width="29" height="29" fill="#000000"/>
<rect x="858" y="800" width="29" height="29" fill="#000000"/>
<rect x="916" y="800" width="29" height="29" fill="#000000"/>
<rect x="1003" y="800" width="29" height="29" fill="#000000"/>
<rect x="1090" y="800" width="29" height="29" fill="#000000"/>
<rect x="133" y="829" width="29" height="29" fill="#000000"/>
<rect x="278" y="829" width="29" height="29" fill="#000000"/>
<rect x="365" y="829" width="29" height="29" fill="#000000"/>
<rect x="394" y="829" width="29" height="29" fill="#000000"/>
<rect x="423" y="829" width="29" height="29" fill="#000000"/>
<rect x="568" y="829" width="29" height="29" fill="#000000"/>
<rect x="626" y="829" width="29" height="29" fill="#000000"/>
<rect x="713" y="829" width="29" height="29" fill="#000000"/>
<rect x="742" y="829" width="29" height="29" fill="#000000"/>
<rect x="771" y="829" width="29" height="29" fill="#000000"/>
<rect x="887" y="829" width="29" height="29" fill="#000000"/>
<rect x="916" y="829" width="29" height="29" fill="#000000"/>
<rect x="945" y="829" width="29" height="29" fill="#000000"/>
<rect x="1090" y="829" width="29" height="29" fill="#000000"/>
<rect x="46" y="858" width="29" height="29" fill="#000000"/>
<rect x="75" y="858" width="29" height="29" fill="#000000"/>
<rect x="104" y="858" width="29" height="29" fill="#000000"/>
<rect x="133" y="858" width="29" height="29" fill="#000000"/>
<rect x="220" y="858" width="29" height="29" fill="#000000"/>
<rect x="278" y="858" width="29" height="29" fill="#000000"/>
<rect x="307" y="858" width="29" height="29" fill="#000000"/>
<rect x="394" y="858" width="29" height="29" fill="#000000"/>
<rect x="452" y="858" width="29" height="29" fill="#000000"/>
<rect x="539" y="858" width="29" height="29" fill="#000000"/>
<rect x="684" y="858" width="29" height="29" fill="#000000"/>
<rect x="829" y="858" width="29" height="29" fill="#000000"/>
<rect x="858" y="858" width="29" height="29" fill="#000000"/>
<rect x="887" y="858" width="29" height="29" fill="#000000"/>
<rect x="916" y="858" width="29" height="29" fill="#000000"/>
<rect x="945" y="858" width="29" height="29" fill="#000000"/>
<rect x="974" y="858" width="29" height="29" fill="#000000"/>
<rect x="1032" y="858" width="29" height="29" fill="#000000"/>
<rect x="1090" y="858" width="29" height="29" fill="#000000"/>
<rect x="278" y="887" width="29" height="29" fill="#000000"/>
<rect x="307" y="887" width="29" height="29" fill="#000000"/>
<rect x="452" y="887" width="29" height="29" fill="#000000"/>
<rect x="481" y="887" width="29" height="29" fill="#000000"/>
<rect x="510" y="887" width="29" height="29" fill="#000000"/>
<rect x="568" y="887" width="29" height="29" fill="#000000"/>
<rect x="742" y="887" width="29" height="29" fill="#000000"/>
<rect x="800" y="887" width="29" height="29" fill="#000000"/>
<rect x="858" y="887" width="29" height="29" fill="#000000"/>
<rect x="974" y="887" width="29" height="29" fill="#000000"/>
<rect x="1003" y="887" width="29" height="29" fill="#000000"/>
<rect x="1090" y="887" width="29" height="29" fill="#000000"/>
<rect x="46" y="916" width="29" height="29" fill="#000000"/>
<rect x="75" y="916" width="29" height="29" fill="#000000"/>
<rect x="104" y="916" width="29" height="29" fill="#000000"/>
<rect x="133" y="916" width="29" height="29" fill="#000000"/>
<rect x="162" y="916" width="29" height="29" fill="#000000"/>
<rect x="191" y="916" width="29" height="29" fill="#000000"/>
<rect x="220" y="916" width="29" height="29" fill="#000000"/>
<rect x="278" y="916" width="29" height="29" fill="#000000"/>
<rect x="307" y="916" width="29" height="29" fill="#000000"/>
<rect x="365" y="916" width="29" height="29" fill="#000000"/>
<rect x="394" y="916" width="29" height="29" fill="#000000"/>
<rect x="452" y="916" width="29" height="29" fill="#000000"/>
<rect x="481" y="916" width="29" height="29" fill="#000000"/>
<rect x="539" y="916" width="29" height="29" fill="#000000"/>
<rect x="655" y="916" width="29" height="29" fill="#000000"/>
<rect x="684" y="916" width="29" height="29" fill="#000000"/>
<rect x="713" y="916" width="29" height="29" fill="#000000"/>
<rect x="742" y="916" width="29" height="29" fill="#000000"/>
<rect x="858" y="916" width="29" height="29" fill="#000000"/>
<rect x="916" y="916" width="29" height="29" fill="#000000"/>
<rect x="974" y="916" width="29" height="29" fill="#000000"/>
<rect x="1003" y="916" width="29" height="29" fill="#000000"/>
<rect x="1061" y="916" width="29" height="29" fill="#000000"/>
<rect x="46" y="945" width="29" height="29" fill="#000000"/>
<rect x="220" y="945" width="29" height="29" fill="#000000"/>
<rect x="278" y="945" width="29" height="29" fill="#000000"/>
<rect x="336" y="945" width="29" height="29" fill="#000000"/>
<rect x="365" y="945" width="29" height="29" fill="#000000"/>
<rect x="423" y="945" width="29" height="29" fill="#000000"/>
<rect x="481" y="945" width="29" height="29" fill="#000000"/>
<rect x="568" y="945" width="29" height="29" fill="#000000"/>
<rect x="597" y="945" width="29" height="29" fill="#000000"/>
<rect x="626" y="945" width="29" height="29" fill="#000000"/>
<rect x="684" y="945" width="29" height="29" fill="#000000"/>
<rect x="713" y="945" width="29" height="29" fill="#000000"/>
<rect x="742" y="945" width="29" height="29" fill="#000000"/>
<rect x="771" y="945" width="29" height="29" fill="#000000"/>
<rect x="800" y="945" width="29" height="29" fill="#000000"/>
<rect x="829" y="945" width="29" height="29" fill="#000000"/>
<rect x="858" y="945" width="29" height="29" fill="#000000"/>
<rect x="974" y="945" width="29" height="29" fill="#000000"/>
<rect x="1032" y="945" width="29" height="29" fill="#000000"/>
<rect x="1061" y="945" width="29" height="29" fill="#000000"/>
<rect x="1090" y="945" width="29" height="29" fill="#000000"/>
<rect x="46" y="974" width="29" height="29" fill="#000000"/>
<rect x="104" y="974" width="29" height="29" fill="#000000"/>
<rect x="133" y="974" width="29" height="29" fill="#000000"/>
<rect x="162" y="974" width="29" height="29" fill="#000000"/>
<rect x="220" y="974" width="29" height="29" fill="#000000"/>
<rect x="307" y="974" width="29" height="29" fill="#000000"/>
<rect x="365" y="974" width="29" height="29" fill="#000000"/>
<rect x="423" y="974" width="29" height="29" fill="#000000"/>
<rect x="452" y="974" width="29" height="29" fill="#000000"/>
<rect x="510" y="974" width="29" height="29" fill="#000000"/>
<rect x="539" y="974" width="29" height="29" fill="#000000"/>
<rect x="568" y="974" width="29" height="29" fill="#000000"/>
<rect x="597" y="974" width="29" height="29" fill="#000000"/>
<rect x="626" y="974" width="29" height="29" fill="#000000"/>
<rect x="684" y="974" width="29" height="29" fill="#000000"/>
<rect x="713" y="974" width="29" height="29" fill="#000000"/>
<rect x="800" y="974" width="29" height="29" fill="#000000"/>
<rect x="858" y="974" width="29" height="29" fill="#000000"/>
<rect x="887" y="974" width="29" height="29" fill="#000000"/>
<rect x="916" y="974" width="29" height="29" fill="#000000"/>
<rect x="945" y="974" width="29" height="29" fill="#000000"/>
<rect x="974" y="974" width="29" height="29" fill="#000000"/>
<rect x="1003" y="974" width="29" height="29" fill="#000000"/>
<rect x="1032" y="974" width="29" height="29" fill="#000000"/>
<rect x="1090" y="974" width="29" height="29" fill="#000000"/>
<rect x="46" y="1003" width="29" height="29" fill="#000000"/>
<rect x="104" y="1003" width="29" height="29" fill="#000000"/>
<rect x="133" y="1003" width="29" height="29" fill="#000000"/>
<rect x="162" y="1003" width="29" height="29" fill="#000000"/>
<rect x="220" y="1003" width="29" height="29" fill="#000000"/>
<rect x="394" y="1003" width="29" height="29" fill="#000000"/>
<rect x="510" y="1003" width="29" height="29" fill="#000000"/>
<rect x="568" y="1003" width="29" height="29" fill="#000000"/>
<rect x="597" y="1003" width="29" height="29" fill="#000000"/>
<rect x="858" y="1003" width="29" height="29" fill="#000000"/>
<rect x="945" y="1003" width="29" height="29" fill="#000000"/>
<rect x="1003" y="1003" width="29" height="29" fill="#000000"/>
<rect x="1061" y="1003" width="29" height="29" fill="#000000"/>
<rect x="46" y="1032" width="29" height="29" fill="#000000"/>
<rect x="104" y="1032" width="29" height="29" fill="#000000"/>
<rect x="133" y="1032" width="29" height="29" fill="#000000"/>
<rect x="162" y="1032" width="29" height="29" fill="#000000"/>
<rect x="220" y="1032" width="29" height="29" fill="#000000"/>
<rect x="278" y="1032" width="29" height="29" fill="#000000"/>
<rect x="307" y="1032" width="29" height="29" fill="#000000"/>
<rect x="336" y="1032" width="29" height="29" fill="#000000"/>
<rect x="365" y="1032" width="29" height="29" fill="#000000"/>
<rect x="394" y="1032" width="29" height="29" fill="#000000"/>
<rect x="423" y="1032" width="29" height="29" fill="#000000"/>
<rect x="452" y="1032" width="29" height="29" fill="#000000"/>
<rect x="481" y="1032" width="29" height="29" fill="#000000"/>
<rect x="568" y="1032" width="29" height="29" fill="#000000"/>
<rect x="684" y="1032" width="29" height="29" fill="#000000"/>
<rect x="713" y="1032" width="29" height="29" fill="#000000"/>
<rect x="829" y="1032" width="29" height="29" fill="#000000"/>
<rect x="858" y="1032" width="29" height="29" fill="#000000"/>
<rect x="887" y="1032" width="29" height="29" fill="#000000"/>
<rect x="916" y="1032" width="29" height="29" fill="#000000"/>
<rect x="974" y="1032" width="29" height="29" fill="#000000"/>
<rect x="1061" y="1032" width="29" height="29" fill="#000000"/>
<rect x="1090" y="1032" width="29" height="29" fill="#000000"/>
<rect x="46" y="1061" width="29" height="29" fill="#000000"/>
<rect x="220" y="1061" width="29" height="29" fill="#000000"/>
<rect x="336" y="1061" width="29" height="29" fill="#000000"/>
<rect x="394" y="1061" width="29" height="29" fill="#000000"/>
<rect x="423" y="1061" width="29" height="29" fill="#000000"/>
<rect x="452" y="1061" width="29" height="29" fill="#000000"/>
<rect x="481" y="1061" width="29" height="29" fill="#000000"/>
<rect x="626" y="1061" width="29" height="29" fill="#000000"/>
<rect x="684" y="1061" width="29" height="29" fill="#000000"/>
<rect x="858" y="1061" width="29" height="29" fill="#000000"/>
<rect x="887" y="1061" width="29" height="29" fill="#000000"/>
<rect x="974" y="1061" width="29" height="29" fill="#000000"/>
<rect x="1061" y="1061" width="29" height="29" fill="#000000"/>
<rect x="1090" y="1061" width="29" height="29" fill="#000000"/>
<rect x="46" y="1090" width="29" height="29" fill="#000000"/>
<rect x="75" y="1090" width="29" height="29" fill="#000000"/>
<rect x="104" y="1090" width="29" height="29" fill="#000000"/>
<rect x="133" y="1090" width="29" height="29" fill="#000000"/>
<rect x="162" y="1090" width="29" height="29" fill="#000000"/>
<rect x="191" y="1090" width="29" height="29" fill="#000000"/>
<rect x="220" y="1090" width="29" height="29" fill="#000000"/>
<rect x="336" y="1090" width="29" height="29" fill="#000000"/>
<rect x="394" y="1090" width="29" height="29" fill="#000000"/>
<rect x="481" y="1090" width="29" height="29" fill="#000000"/>
<rect x="539" y="1090" width="29" height="29" fill="#000000"/>
<rect x="597" y="1090" width="29" height="29" fill="#000000"/>
<rect x="626" y="1090" width="29" height="29" fill="#000000"/>
<rect x="713" y="1090" width="29" height="29" fill="#000000"/>
<rect x="800" y="1090" width="29" height="29" fill="#000000"/>
<rect x="858" y="1090" width="29" height="29" fill="#000000"/>
<rect x="974" y="1090" width="29" height="29" fill="#000000"/>
<rect x="1003" y="1090" width="29" height="29" fill="#000000"/>
<rect x="1090" y="1090" width="29" height="29" fill="#000000"/>
</g>
</svg>

